<?xml version="1.0" encoding="UTF-8"?>
<svg id="Layer_1" data-name="Layer 1" xmlns="http://www.w3.org/2000/svg" version="1.1" viewBox="0 0 100 166">
  <defs>
    <style>
      .cls-1 {
        fill: #fff;
        stroke-width: 0px;
      }
    </style>
  </defs>
  <g>
    <path class="cls-1" d="M15.9,0h-4.2v3.5H1.8v22.9h4.3V8.1h5.6v22.1h4.2V8.1h5.6v11.4c0,.9-.2,1.6-.6,2.1-.4.5-1,.8-1.8.9l1.1,4.6c1.1-.2,2.1-.5,2.7-.9.7-.5,1.3-1.1,1.7-1.7s.7-1.5.9-2.3c.2-.8.3-1.7.3-2.6v-11.5h1.1V3.5h-11.1s0-3.5,0-3.5Z"/>
    <path class="cls-1" d="M37.4,8.1h11.3V3.5h-18.5v4.6h2.9v4.6h-3.7v4.6h3.7v3.6c0,1.4.1,2.6.4,3.6.3,1.1.7,1.9,1.3,2.6.6.7,1.4,1.2,2.3,1.6s2.1.5,3.5.5h10.4l1.1-4.6h-11.3c-1.3,0-2.1-.3-2.5-.9s-.6-1.6-.6-2.8v-3.6h15.9v-4.6h-15.9v-4.6h0Z"/>
    <path class="cls-1" d="M56,17.6s0,3.5.8,5.5c3.9-1.9,3.4-5.5,3.4-5.5v-9.5h12.3v4.1c0,2-.5,3.7-1.4,5.3-.9,1.6-2.1,2.9-3.6,3.9s-3.1,1.9-5,2.4c-1.8.6-3.7.8-5.6.8l1.4,4.6c2.4-.2,4.7-.7,7-1.5,2.2-.8,4.2-1.9,5.9-3.4,1.7-1.4,3.1-3.2,4.1-5.3,1.1-2.1,1.5-4.5,1.5-7.2V3.5h-20.9v14.1h0Z"/>
    <path class="cls-1" d="M91.4,24.6V8.1h5.2c.4-1.5.9-2.9,1.5-4.3v-.3h-17.7v4.6h6.7v16.6h-6.2s-1.1,2.7-4.7,4.6h23.9c-.9-1.4-1.7-3-2.4-4.6h-6.3.1Z"/>
  </g>
  <g>
    <path class="cls-1" d="M11.9,128v-9.5l-4.1,7.3h-.9l-4.1-7.3v9.5h-1.6v-12.4h1.7l4.5,8.1,4.5-8.1h1.6v12.4h-1.6Z"/>
    <path class="cls-1" d="M20.1,128.2c-.7,0-1.3-.1-1.9-.4s-1.1-.6-1.5-1c-.4-.4-.7-.9-.9-1.5-.2-.6-.3-1.2-.3-1.8s.2-1.6.6-2.4c.4-.7.9-1.3,1.6-1.7s1.5-.6,2.4-.6,1.7.2,2.4.6,1.2,1,1.6,1.7.6,1.5.6,2.3,0,.2,0,.3v.3h-7.6c0,.6.2,1.1.5,1.6s.6.8,1.1,1.1c.5.3.9.4,1.5.4s1.1-.2,1.6-.4.8-.6,1-1.1l1.3.4c-.2.4-.5.8-.9,1.2-.4.4-.8.6-1.4.8-.5.2-1.1.3-1.7.3h0ZM17,122.9h6.2c0-.6-.2-1.1-.5-1.6s-.7-.8-1.1-1.1c-.5-.3-.9-.4-1.5-.4s-1.1.1-1.5.4c-.5.3-.8.6-1.1,1.1-.3.5-.5.9-.5,1.6Z"/>
    <path class="cls-1" d="M25.8,123.5c0-.8.2-1.6.5-2.4s.8-1.3,1.5-1.7c.6-.4,1.3-.6,2.2-.6s1.4.2,2,.6c.6.4,1.1.8,1.4,1.4v-5.5h1.5v11.1c0,.2,0,.3.1.4,0,.1.2.2.4.2v1.2c-.3,0-.5,0-.7,0-.3,0-.6-.1-.8-.3-.2-.2-.3-.4-.3-.7v-.8c-.4.6-.8,1.1-1.5,1.4s-1.3.5-1.9.5-1.2-.1-1.7-.4-1-.6-1.4-1.1c-.4-.4-.7-.9-.9-1.5-.2-.6-.3-1.2-.3-1.8h0ZM33.3,124.8v-2.6c-.2-.4-.4-.7-.7-1.1s-.7-.6-1.1-.7c-.4-.2-.8-.3-1.2-.3s-.8.1-1.2.3c-.4.2-.7.4-.9.7-.3.3-.5.7-.6,1.1-.2.4-.2.8-.2,1.3s0,.9.2,1.3c.2.4.4.7.7,1.1.3.3.6.6,1,.7.4.2.8.3,1.2.3s.6,0,.8-.2c.3-.1.6-.3.8-.4.3-.2.5-.4.7-.6.2-.3.3-.5.4-.8h0Z"/>
    <path class="cls-1" d="M37.4,117.1v-1.9h1.5v1.9h-1.5ZM37.4,128v-9.2h1.5v9.2h-1.5Z"/>
    <path class="cls-1" d="M45.5,128.2c-.7,0-1.3-.1-1.9-.4s-1.1-.6-1.5-1.1c-.4-.4-.7-.9-.9-1.5-.2-.6-.4-1.2-.4-1.8s.2-1.6.6-2.4c.4-.7.9-1.3,1.6-1.7.7-.4,1.5-.6,2.4-.6s1.7.2,2.4.6c.7.4,1.2.9,1.5,1.6l-1.5.5c-.2-.4-.6-.8-1-1-.4-.3-.9-.4-1.4-.4s-1.1.2-1.5.4-.8.7-1.1,1.2-.4,1.1-.4,1.7.2,1.2.4,1.7.6.9,1.1,1.2c.5.3.9.5,1.5.5s.7,0,1.1-.2c.3-.1.6-.3.9-.5s.4-.5.5-.7l1.5.5c-.2.4-.5.8-.8,1.2-.4.4-.8.6-1.4.8-.5.2-1.1.3-1.7.3h0Z"/>
    <path class="cls-1" d="M51.2,117.1v-1.9h1.5v1.9h-1.5ZM51.2,128v-9.2h1.5v9.2h-1.5Z"/>
    <path class="cls-1" d="M63.1,128h-1.5v-5.1c0-.9-.2-1.7-.4-2.1-.3-.4-.7-.7-1.4-.7s-.8.1-1.3.3c-.4.2-.8.5-1.1.8-.3.4-.5.7-.7,1.2v5.5h-1.5v-9.1h1.4v1.9c.3-.4.6-.8.9-1.1.4-.3.8-.6,1.3-.7.5-.2,1-.3,1.5-.3s.9.1,1.3.3c.4.2.6.5.8.8s.4.7.4,1.2c.1.5.1.9.1,1.5v5.4h0Z"/>
    <path class="cls-1" d="M64.8,125.4c0-.6.2-1.1.5-1.5.3-.4.8-.7,1.4-1,.6-.2,1.3-.4,2.1-.4s.8,0,1.3.1c.5,0,.8.2,1.2.3v-.7c0-.7-.2-1.2-.6-1.6s-1-.6-1.8-.6-1,.1-1.4.3c-.5.2-.9.4-1.5.8l-.6-1.1c.6-.4,1.2-.7,1.8-.9.6-.2,1.2-.3,1.8-.3,1.2,0,2.1.3,2.8.9s1,1.5,1,2.7v3.8c0,.2,0,.3.1.4,0,.1.2.2.4.2v1.2h-.6c-.4,0-.6-.1-.8-.3-.2-.2-.3-.4-.3-.6v-.6c-.4.5-.9.9-1.6,1.2-.6.3-1.3.4-1.9.4s-1.2-.1-1.6-.4-.8-.6-1.1-1c-.3-.4-.4-.9-.4-1.4h0ZM70.8,126c.2-.2.3-.3.3-.5.1-.2.1-.3.1-.4v-1.1c-.4-.2-.7-.3-1.2-.3s-.8-.1-1.2-.1c-.8,0-1.4.2-1.9.5-.5.3-.7.7-.7,1.3s0,.6.3.8c.2.3.4.5.7.7.3.2.7.3,1.2.3s.9-.1,1.4-.3c.4-.2.8-.4,1.1-.7h0Z"/>
    <path class="cls-1" d="M10.1,135.9h-4.3v11.1h-1.6v-11.1H0v-1.4h10.2v1.4Z"/>
    <path class="cls-1" d="M15.1,139.1c-.8,0-1.5.2-2.1.6s-1,.9-1.3,1.6v5.6h-1.5v-9.1h1.4v2.1c.3-.6.7-1.2,1.3-1.5.5-.4,1.1-.6,1.6-.6h.5v1.4h0Z"/>
    <path class="cls-1" d="M15.9,144.3c0-.6.2-1.1.5-1.5s.8-.7,1.4-1c.6-.2,1.3-.4,2.1-.4s.8,0,1.3.1.8.2,1.2.3v-.7c0-.7-.2-1.2-.6-1.6-.4-.4-1-.6-1.8-.6s-1,.1-1.4.3c-.5.2-.9.4-1.5.8l-.6-1.1c.6-.4,1.2-.7,1.8-.9.6-.2,1.2-.3,1.8-.3,1.2,0,2.1.3,2.8.9.7.6,1,1.5,1,2.7v3.8c0,.2,0,.3.1.4,0,.1.2.2.4.2v1.2h-.6c-.4,0-.6-.1-.8-.3s-.3-.4-.3-.6v-.6c-.4.5-.9.9-1.6,1.2-.6.3-1.3.4-1.9.4s-1.2-.1-1.6-.4c-.5-.3-.8-.6-1.1-1s-.4-.9-.4-1.4h0ZM21.9,144.9c.2-.2.3-.3.3-.5.1-.2.1-.3.1-.4v-1.1c-.4-.2-.7-.3-1.2-.3s-.8-.1-1.2-.1c-.8,0-1.4.2-1.9.5-.5.3-.7.7-.7,1.3s.1.6.3.8.4.5.7.7c.3.2.7.3,1.2.3s.9-.1,1.4-.3c.4-.2.8-.4,1.1-.7h0Z"/>
    <path class="cls-1" d="M25.7,142.4c0-.8.2-1.6.5-2.4s.8-1.3,1.5-1.7c.6-.4,1.3-.6,2.2-.6s1.4.2,2,.6,1.1.8,1.4,1.4v-5.5h1.5v11.1c0,.2,0,.3.1.4,0,.1.2.2.4.2v1.2c-.3,0-.5,0-.7,0-.3,0-.6-.1-.8-.3s-.3-.4-.3-.7v-.8c-.4.6-.8,1.1-1.5,1.4s-1.3.5-1.9.5-1.2-.1-1.7-.4-1-.6-1.4-1.1c-.4-.4-.7-.9-.9-1.5s-.3-1.2-.3-1.8h0ZM33.2,143.7v-2.6c-.2-.4-.4-.7-.7-1.1s-.7-.6-1.1-.7c-.4-.2-.8-.3-1.2-.3s-.8.1-1.2.3c-.4.2-.7.4-.9.7s-.5.7-.6,1.1c-.2.4-.2.8-.2,1.3s0,.9.3,1.3c.2.4.4.7.7,1.1.3.3.6.6,1,.7s.8.3,1.2.3.6,0,.8-.2c.3-.1.6-.3.8-.4.3-.2.5-.4.7-.6.2-.3.3-.5.4-.8h0Z"/>
    <path class="cls-1" d="M37.3,136.1v-1.9h1.5v1.9h-1.5ZM37.3,146.9v-9.2h1.5v9.2h-1.5Z"/>
    <path class="cls-1" d="M45.4,147.1c-.7,0-1.3-.1-1.9-.4s-1.1-.6-1.5-1.1c-.4-.4-.7-.9-.9-1.5s-.3-1.2-.3-1.8.2-1.6.6-2.4c.4-.7.9-1.3,1.6-1.7.7-.4,1.5-.6,2.4-.6s1.7.2,2.4.6c.7.4,1.2.9,1.5,1.6l-1.5.5c-.2-.4-.6-.8-1-1-.4-.3-.9-.4-1.4-.4s-1.1.2-1.5.4-.8.7-1.1,1.2-.4,1.1-.4,1.7.2,1.2.4,1.7.6.9,1.1,1.2c.5.3.9.5,1.5.5s.7,0,1.1-.2c.3-.1.6-.3.9-.5s.4-.5.5-.7l1.5.5c-.2.4-.5.8-.8,1.2-.4.4-.8.6-1.4.8-.5.2-1.1.3-1.7.3h0Z"/>
    <path class="cls-1" d="M51.1,136.1v-1.9h1.5v1.9h-1.5ZM51.1,146.9v-9.2h1.5v9.2h-1.5Z"/>
    <path class="cls-1" d="M59.1,147.1c-.7,0-1.3-.1-1.9-.4s-1.1-.6-1.5-1-.7-.9-.9-1.5-.3-1.2-.3-1.8.1-1.3.3-1.8c.2-.6.5-1.1.9-1.5.4-.4.9-.8,1.5-1,.6-.3,1.2-.4,1.9-.4s1.3.1,1.8.4c.6.3,1.1.6,1.5,1s.7.9.9,1.5.3,1.2.3,1.8-.1,1.2-.3,1.8-.5,1.1-.9,1.5c-.4.4-.9.8-1.5,1-.6.3-1.2.4-1.9.4h0ZM56.1,142.4c0,.6.2,1.2.4,1.7.3.5.6.9,1.1,1.2.5.3.9.4,1.5.4s1.1-.2,1.5-.5.8-.7,1.1-1.2.4-1.1.4-1.7-.2-1.2-.4-1.7c-.3-.5-.6-.9-1.1-1.2-.5-.3-.9-.5-1.5-.5s-1.1.2-1.5.5-.8.7-1.1,1.2-.4,1.1-.4,1.7h0Z"/>
    <path class="cls-1" d="M73.5,146.9h-1.5v-5.1c0-.9-.2-1.7-.4-2.1-.3-.4-.7-.7-1.4-.7s-.8.1-1.3.3c-.4.2-.8.5-1.1.8s-.5.7-.7,1.2v5.5h-1.5v-9.1h1.4v1.9c.3-.4.6-.8.9-1.1s.8-.6,1.3-.7,1-.3,1.5-.3.9.1,1.3.3c.4.2.6.5.8.8.2.3.4.7.4,1.2.1.5.2.9.2,1.5v5.4h0Z"/>
    <path class="cls-1" d="M75.2,144.3c0-.6.2-1.1.5-1.5.3-.4.8-.7,1.4-1,.6-.2,1.3-.4,2.1-.4s.8,0,1.3.1.8.2,1.2.3v-.7c0-.7-.2-1.2-.6-1.6-.4-.4-1-.6-1.8-.6s-1,.1-1.4.3c-.5.2-.9.4-1.5.8l-.6-1.1c.6-.4,1.2-.7,1.8-.9.6-.2,1.2-.3,1.8-.3,1.2,0,2.1.3,2.8.9.7.6,1,1.5,1,2.7v3.8c0,.2,0,.3.1.4,0,.1.2.2.4.2v1.2h-.6c-.4,0-.6-.1-.8-.3s-.3-.4-.3-.6v-.6c-.4.5-.9.9-1.6,1.2-.6.3-1.3.4-1.9.4s-1.2-.1-1.6-.4c-.5-.3-.8-.6-1.1-1s-.4-.9-.4-1.4h0ZM81.2,144.9c.2-.2.3-.3.3-.5.1-.2.1-.3.1-.4v-1.1c-.4-.2-.7-.3-1.2-.3s-.8-.1-1.2-.1c-.8,0-1.4.2-1.9.5-.5.3-.7.7-.7,1.3s0,.6.2.8c.2.3.4.5.7.7.3.2.7.3,1.2.3s.9-.1,1.4-.3c.4-.2.8-.4,1.1-.7h0Z"/>
    <path class="cls-1" d="M85.7,134.1h1.5v10.5c0,.5,0,.8.2.9.2.1.3.2.5.2s.5,0,.7-.1c.2,0,.4-.1.6-.2l.3,1.3c-.3.1-.6.2-.9.3-.4,0-.7.1-.9.1-.6,0-1.1-.2-1.4-.5-.4-.3-.5-.8-.5-1.4v-11.1h0Z"/>
    <path class="cls-1" d="M.3,159.5c0-.7.2-1.5.4-2.2.3-.7.6-1.4,1.2-2,.5-.6,1.1-1.1,1.8-1.4.7-.4,1.6-.5,2.5-.5s2.1.3,2.8.7c.8.5,1.4,1.2,1.8,1.9l-1.3.8c-.3-.5-.6-.9-.9-1.3-.4-.3-.8-.5-1.2-.6s-.8-.2-1.3-.2c-.7,0-1.3.2-1.8.4s-1,.6-1.3,1.1c-.4.5-.6,1-.8,1.6-.2.6-.3,1.2-.3,1.7s.1,1.3.3,1.8c.2.6.5,1.1.9,1.6.4.5.8.8,1.4,1.1.5.3,1.1.4,1.7.4s.9,0,1.3-.2c.5-.2.9-.4,1.3-.7.4-.3.7-.7.9-1.3l1.3.7c-.3.6-.6,1.2-1.2,1.6-.5.4-1.2.7-1.8,1-.7.2-1.3.3-1.9.3s-1.6-.2-2.4-.5c-.7-.4-1.3-.8-1.8-1.5-.5-.6-.9-1.3-1.2-2.1-.3-.8-.4-1.5-.4-2.3h0Z"/>
    <path class="cls-1" d="M23.1,153.4v12.4h-1.6v-5.6h-6.8v5.6h-1.6v-12.4h1.6v5.4h6.8v-5.4h1.6Z"/>
    <path class="cls-1" d="M26.1,165.8v-12.4h1.6v12.4h-1.6Z"/>
    <path class="cls-1" d="M32.2,156.3v9.5h-1.6v-12.4h1.3l7.6,9.7v-9.7h1.6v12.4h-1.4l-7.5-9.5h0Z"/>
    <path class="cls-1" d="M47.9,153.4h1.3l5.1,12.4h-1.7l-1.4-3.6h-5.4l-1.4,3.6h-1.7l5.1-12.4h0ZM50.8,161l-2.2-5.7-2.2,5.7s4.4,0,4.4,0Z"/>
  </g>
  <g>
    <path class="cls-1" d="M44,103.1c-16.4,0-29.7-13.3-29.7-29.7s13.3-29.7,29.7-29.7,29.7,13.3,29.7,29.7-2.2,12.6-5.8,17.6l1.8,3c5-6.2,8-14,8-22.5,0-19.7-16-35.8-35.8-35.8S6.3,51.7,6.3,71.4s16,35.8,35.8,35.8,10.4-1.2,15-3.3l-2.4-2.8c-3.3,1.3-6.9,2-10.6,2Z"/>
    <path class="cls-1" d="M52.7,74.9l19.3,30.8c.9,1.3.7,3.2-.6,4.1s-3.2.7-4.1-.6l-24.1-28.3c-.9-1.3-5.1-6.6-.3-9.9s8.4,1.5,9.8,4h0Z"/>
    <g>
      <path class="cls-1" d="M80,50.3c-.2-.1-.4.1-.6.3h.7v-.3Z"/>
      <path class="cls-1" d="M89.9,49.9c0,.1-.1.3-.3.3.2,0,.3,0,.3-.3Z"/>
      <path class="cls-1" d="M89.7,50.1h-.1.1Z"/>
      <path class="cls-1" d="M90.4,49.4c-.1-.3-.5-.6.1-.7-.4-.1-.6-.4-.9-.6-.2-.3-.5-.5-.8-.6l.4-.3c-.3.1-.5-.2-.7-.3-.2-.2-.4-.4-.7-.1v-.2c.1,0-.1,0-.3.1-.2,0-.4.2-.4.2-.2-.2.3-.8.2-.6-.6-.2-1-.3-1.3-.6-.2.3-.4.5-.6.6-.2.1-.5.1-.7.2-1-.3-2.2-.1-3.1.5-.4.3-.8.6-1,1.1-.3.5-.4,1-.3,1.5,0,0,0,.2.2.3v.6c0,.3,0,.5.1.7-.2,0-.3,0-.4,0,0,0,.2,0,.4.2h0c.3,3.4-1.8,3.1,2.3,4.1-.3.2-.6,0-.9.4.5-.2.8-.2,1.3-.1.3,0,.5,0,.7-.1,1.2.1,2.3-.2,3.2-.9.1,0,.2.1.3.1,0,0-.2-.1-.2-.2.1-.1.2-.2.3-.3h0c0-.1.1-.2.4-.2,0-.1,0-.2-.1-.2,0,0,0-.1.1-.2h.1c.3.2.5.4.8.4.2.5,0,.9,0,1.3h0c0-.2,0-.3.1-.4,0-.2.1-.4.1-.4.3.2.8-.2.8.3.4-.3.6-.7.6-1.2,0-.5,0-.9,0-1.3-.1.1-.2.2-.4.2-.2-.4.3-.3.5-.4-.2-.3-.8-.3-1.2-.4.3-.3.3-.4.4-.6,0-.2.2-.3.5-.6l-.6.2c.4-.4-.5-.3-.2-.7.1,0,.3,0,.4.1-.3-.3.4-.5,0-.7h.7-.1ZM80.3,51h0Z"/>
      <path class="cls-1" d="M81.1,56.1l-.2.5s.2,0,.4,0c.2,0,.3-.1.3-.1,0-.4-.3-.1-.5-.3h0Z"/>
      <path class="cls-1" d="M86.6,55.1c0,0-.1.2-.2.3s-.1.2-.2.3c0,0-.1.1-.1.1h.1c0-.2.2-.3.2-.4,0-.1.2-.2.2-.3,0,0,0-.1,0-.1h-.2q0,.1,0,.1Z"/>
      <path class="cls-1" d="M90.7,49.9c-.1-.1-.2-.2-.2-.2h0c.2.1.2.4.4.5,0,0-.1-.1-.2-.2h0Z"/>
      <path class="cls-1" d="M88.4,44.1c-.6.6-.4-.3-.5.6.4,0,.3-.4.5-.6Z"/>
      <path class="cls-1" d="M87.1,44.7c-.1-.5-.3,0-.5,0,.2.1.3,0,.5,0Z"/>
    </g>
    <g>
      <path class="cls-1" d="M44,97.6c.3,0,0-.2-.3-.3l-.3.3h.6Z"/>
      <path class="cls-1" d="M42.7,97.4l-.7.3h.5c.5.1-.1.2-.3.3.9,0,.4-.4.5-.5Z"/>
      <path class="cls-1" d="M41.4,97.5c-.4-.1-.3.2-.2.2,0-.1.3-.2.2-.2Z"/>
      <path class="cls-1" d="M22.1,81.9v.3c.1.1.2.1,0-.3Z"/>
      <path class="cls-1" d="M22.1,82.1h0q0,0,0,0h0Z"/>
      <path class="cls-1" d="M24.4,91c.5.3.6.5,1,.8v.4c.5.3.3,0,.7.2.3.4,1.1,1,1.3,1.2,0,.2-.3,0-.4,0,.5.3.7.1,1.3.5h0c1.7.8,3.7,2.1,5.6,2.5-.1,0,0-.1-.1-.2.3.1.5.2.7.3.3,0,.5.2.8.2.5.2,1.1.3,1.6.4,1.1.2,2.1.3,2.9,0-.3,0-.6-.1-.9-.2-.3-.1-.7-.2-1.1-.3-.4-.1-.7-.2-1.1-.3-.3-.1-.7-.1-.9-.1-.3-.3-1.1-.2-1.1-.6-.7-.4-1.3-.5-1.8-.6-.5-.2-1.1-.3-1.8-.6-.2-.2,0-.2,0-.4,0,0,0,0,.2,0,.1,0,.3.1.4.2.3.1.6.2.6.2l-.6-.4c.3,0,1,.5,1.2.3-.3,0-.5-.2-.8-.3s-.6-.3-.9-.4c-.6-.3-1.2-.6-1.6-.8.3.3.8.5,1.3.8.2.2.4.4.3.5-.7-.3-1.4-.5-1.9-.9-.3-.2-.6-.4-.8-.6-.2-.1-.3-.2-.5-.3-.2-.1-.3-.2-.5-.4-.3-.2-.7-.6-.7-.7.2.1.2,0,.4,0-.3-.2-.3,0-.4,0-.1,0-.2,0-.5-.3l.4-.3c-.5.1-.6-.7-1.2-.9,0-.2,0-.2.2-.1.1,0,.3.2.4.3-.3-.4-.5-.3-.7-.6h.5c-.5,0-.4-.6-.5-.8-.1,0-.2.4-.5,0-.1-.2,0-.2,0-.3-.1,0-.4,0-.5-.3,0-.1.3,0,.4,0-.2-.2-.3-.4-.3-.6-.4-.3-.1.1-.4,0-.3-.6.3-.3.4-.6.5.3.8.8,1.1.9h-.1c0-.2-.2-.3-.2-.4-.2-.2-.3-.4-.3-.4.2,0-.2-.7.2-.3-.2-.4-.5-.8-.8-1.3-.3-.4-.6-.8-.9-1.2,0,.2,0,.3,0,.3-.3-.4-.1-.4,0-.6-.3-.3-.5-.1-.7-.3-.1-.8-.3-.8-.2-1.5h-.2c0-.4-.4-.3-.4-.8,0,0,.2.1.3.2-.2-.4,0-.4-.2-.8l.4.2c-.1-.3-.3-.7,0-.6-.2-.2-.4-.6-.5-.9-.1-.4-.2-.8-.4-1.1h.2c-.4-.3-.2-1.3-.6-1.6h.1c0,0-.1-.2-.2-.4-.1-.2-.2-.4-.2-.4,0-.3.3-.3.2-.3-.1-.4-.1-.7-.2-1v-.8c-.3-.1-.4-.9-.5-1.5.2-2.9.3-6.2,1.2-8.8.1-.2.2-.4.2-.7s.1-.6.2-.8c-.2.3-.3.4-.4.6,0,.2-.1.4-.3.6-.3.4-.6.5-.9.8h.3c0,.6-.3.3-.2.9l-.4-.2c.1.3-.2.6-.3.8l.2.3c-.3.4-.4.6-.6.7h.3c-.1,0-.2.5-.3.8,0,.3-.2.5-.4.3,0,.2.2.3,0,.5h-.3c0,.4,0,.8-.2.9,0-.2-.2-.3-.3-.4-.2,1.7.7.4.7,1.9h-.2l.2.4s0,.1-.1.2c0,.1-.1.2-.1.2.3.3.3.8.2,1.3,0,.5-.1,1.2.1,1.6,0,.3-.2.8-.1,1.5h.3c-.1.2-.1.8-.2,1.5,0,.6-.1,1.3-.3,1.6.3.5,0,0,.2-.1.5.9.1,1.1.1,1.6.2.3.2.2.1,0,0-.2,0-.4.1-.2,0,.9.5.6.7,1.8-.1.2-.2-.3-.3-.3.2.4.5.9.7,1.5.2.6.5,1.2.7,1.7.4,1.3,1.4,3.2,2.3,4.6h.1c.1.3.4.6.6.8.3.3.5.6.7.9l-.2-.4h.1Z"/>
      <path class="cls-1" d="M33.3,94.6v-.3l-.7-.2c.2.3.4.2.7.4Z"/>
      <path class="cls-1" d="M32.9,95.1h.4s-.2,0-.3-.1c-.2,0-.3-.1-.3-.1l.2.2h0Z"/>
      <polygon class="cls-1" points="26 89.7 26.1 89.8 27.1 90.6 26 89.7"/>
      <path class="cls-1" d="M22.4,81.9c.2.1.2.3.3.4l-.3-.5h0Z"/>
      <path class="cls-1" d="M21.9,76.2c-.4-.2,0-.4-.4-.1.1.3.2,0,.4.1Z"/>
      <path class="cls-1" d="M21.2,74.9c0,.2,0,.3.2.4.2-.3,0-.3-.2-.4Z"/>
    </g>
    <path class="cls-1" d="M83.8,89.5c-.2.3-.4.6-.6.8,1.8-2.3,3.4-4.9,4.7-7.6s2.3-5.6,3.3-8.3c.2-.3.5-1,.7-1.4.5-1.4.8-3,1.1-4.7.2-1.6.3-3.3.2-4.7,0-.7-.4-1.4-.8-1.7-.4-.4-.7-.6-.7-.6-.3-.3-.8-.6-1.1-.2,0,.7,0,2.5-.5,2.5-.1,0-.2-.3-.2-.7-.5,0-1.6-.8-1.6-1.2-.2-.2-.5-.7-.8-1.2-.4-.5-.7-1.1-.9-1.2-.3-.5-.8.2-1.3,1-.4.8-.8,1.9-.9,2.5-.1.6-.6,0-1,.1.3.6,0,.9.2,1.5,0,0,0,.5,0,1,0,.6.2,1.2.2,1.7,0,0,.2.3.3,1.2,0,.3.2.3.3.3h-.2c.3.3.1.9.2,1.2h-.2c.3.6.1,1.2.2,1.8h-.2c0,.3,0,.6,0,.6h-.2c-.1.3.1.9,0,.9h.2c0,.6,0,1.2,0,1.6,0,.5-.1.9-.2,1.4-.4,2.4-.7,5.5-1.4,8.2-.1.3-.1.6.1.4l-.3.9c-.2.6,0,.4-.2.9-.8,2.4-2,4.7-3.4,6.9s-3.1,4.3-4.9,6.2c.5-.5.8-.9,1.2-1.3s.7-.9,1.2-1.4l.3-.2c1.3-1.5,2.5-3.4,3.1-4.2.1-.1.2-.3.4-.4.2-.2.3-.5.6-.9l-.5.8h0c.7-1.1,1.6-2.4,2.2-3.5,0,0,0,0,.1,0l.3-.6c.3-.2,0,.5-.5,1.4-.3.4-.5.9-.8,1.4s-.6.9-.8,1.3h.1c0,0,.4-.5.4-.5h0c-1.1,1.7-2.2,2.9-3.5,4.4.2-.3.7-.7.9-1l.3-.2c-.4.5-.9,1.1-1.5,1.6-.5.5-1.1,1.1-1.5,1.5s0,0,.7-.6c.4-.3.6-.6.9-.9.3-.3.6-.6.9-.9h0c-.5.5-1.2,1.2-1.6,1.7-.2.3.5-.4.3-.2-.3.2-.5.5-.7.7.2-.2.4-.4.6-.5.2-.2.4-.4.6-.6.4-.4.8-.8,1.2-1.2.3-.2.5-.5.5-.4,1.2-1.2,2.1-2.2,2.8-2.9,0,0,.2-.2.3-.4.2-.2.3-.4.5-.6.2-.3.4-.5.6-.7.2-.3.4-.5.5-.7h0Z"/>
    <g>
      <path class="cls-1" d="M78.5,100.6h.1c0-.1-.1,0-.1,0h0Z"/>
      <path class="cls-1" d="M78.8,100.3v-.2c.1,0,0,.1,0,.1-.1.1,0,0,0-.1-.2.2,0,.1,0,.2Z"/>
      <path class="cls-1" d="M79,100.1c.1-.1,0-.1,0,0,0,0,0,.1,0,0Z"/>
      <path class="cls-1" d="M84.9,95.1h-.1c0,0,0,.1.1,0Z"/>
      <path class="cls-1" d="M84.8,95.1h0Z"/>
      <path class="cls-1" d="M81.7,95.5c0,.2-.1.2-.2.3h-.2c0,0,.1,0,.1.2-.2,0-.3.3-.3.3-.1,0,0-.1-.1-.2,0,.2,0,.3,0,.5h0c-.2.5-.6.9-.8,1.5h0c-.3.5-.7,1.1-.9,1.5.2-.3.7-.5.8-.9.2,0,.2-.3.3-.2.4-.3.3-.6.6-.9,0,0,.1,0,.2.1l-.2.3h.2s-.2.1-.2.3c.1-.3.6-.6.6-.9-.1,0-.2.2-.3.3h-.3c.1-.5.4-.6.7-1,0-.1.2-.2.3-.2,0,0,0,.1,0,.2,0-.2-.2-.3,0-.4l.2.3c-.2-.3.2-.2.2-.4.2,0,.1.2,0,.3.2,0,0-.2,0-.3l.2.3c-.1-.3.2-.1.3-.1,0,0-.3-.2-.2-.3,0,0,.1,0,.2,0,0,0-.1-.2,0-.3.1,0,0,.2.2.2,0,0,0-.1.2-.1,0-.2-.1-.1-.2-.2.2-.1.3.2.5.3,0,.2-.1.4-.1.5l.2-.3c0,.1.3,0,.3.2.3-.2.4-.5.5-.7h-.2c0-.2.2,0,.2,0,0-.2-.2-.3-.2-.4.3,0,.2-.2.5-.1h-.2c.2-.1,0-.3.2-.3v.2c0-.2.2,0,.2-.1v.2c.2-.1.2-.2.3,0,0-.3.2-.5.3-.7h.1c0-.1.3-.2.2-.4h0v-.3c0,0,.2.1.2,0,.1-.2.2-.4.3-.4-.1-.2,0-.4,0-.5.6-.7.9-1.6,1.4-2.3,0-.1.2-.3.3-.4-.1.2-.2.2-.3.3-.1.1-.2.1-.3.2h0c-.1.2-.1,0-.2.2h0s-.1.1-.2.1h0c-.1.2-.2.2-.3.2h0c0,0-.3.3-.4.2,0,0,0,.1,0,.1h-.1c0,0-.2.1-.2.1v-.2c-.4.3.2.3,0,.6h0c0,0,0,0,0,0h-.2c.1.3-.4.4-.5.7,0,.1-.3,0-.4.2h.2c-.2.1-.7.4-1.1.2,0,.2,0,0,.2.1,0,.3-.3.1-.5.2,0,.2.2,0,.2.1-.3,0,0,.3-.3.4-.1,0,0-.1,0-.2,0,.3-.4.5-.6.7-.4.2-.8.5-1.2.7h0c-.3,0-.3.3-.4.4h.2-.1Z"/>
      <path class="cls-1" d="M81.1,98.6h.1c0,0,.1-.1.1-.1-.2,0-.1,0-.2.1Z"/>
      <polygon class="cls-1" points="80.8 98.3 80.8 98.4 80.9 98.3 80.8 98.3"/>
      <polygon class="cls-1" points="82.8 96.6 82.8 96.6 82.6 97.1 82.8 96.6"/>
      <path class="cls-1" d="M85.1,95.2v.2-.2h0Z"/>
      <path class="cls-1" d="M86.6,94.2c-.2-.2,0-.1-.2-.2,0,.1.1.1.2.2Z"/>
      <path class="cls-1" d="M86.5,93.6v.2c.1,0,0-.1,0-.2Z"/>
    </g>
  </g>
</svg>